<svg xmlns="http://www.w3.org/2000/svg" version="1.1" xmlns:xlink="http://www.w3.org/1999/xlink" xmlns:svgjs="http://svgjs.dev/svgjs" width="100%" height="100%" viewBox="0 0 1000 600"><rect width="1000" height="600" x="0" y="0" fill="#209cee"/><g><circle r="166.66666666666666" cx="222.22222391764322" cy="244.4444359673398" fill="#209cee" transform="matrix(2.2499999313354513,0,0,2.2499999313354517,0,-249.99999847412175)"/><path d="M184.83959911327747 317.3317534601804L162.01096354569245 317.3317534601804L162.01096354569245 243.59350001372647L163.50744222685807 253.95147990493146L103.70698041871118 169.44444849793297L131.1717656259857 169.44444849793297L176.79969404191718 234.93739783835682L171.5180045789798 234.2918580151089L212.71518238989157 169.44444849793297L238.91823066990884 169.44444849793297L181.67058543551502 256.2695547247762L184.83959911327747 241.9209650171296L184.83959911327747 317.3317534601804ZM269.7574285896156 319.4444292453553L269.7574285896156 319.4444292453553Q262.568462376173 319.4444292453553 256.0250359859783 317.53715249485015Q249.48160959578365 315.629875744345 243.87715022122228 312.050063997243Q238.2726908466609 308.4702522501409 233.84194024164123 303.481989979589Q229.4111896366215 298.52307042827556 226.24217595885904 292.62518386132876L226.24217595885904 292.62518386132876L240.62010838574423 277.6017116111957Q245.05085899076394 283.9397389667205 248.7480416148201 287.7542924677309Q252.44522423887628 291.56884596874124 255.81963695130852 293.6815217539162Q259.19404966374077 295.7941975390911 262.568462376173 296.5277655200547Q265.9722178078438 297.26133350101816 269.7574285896156 297.26133350101816L269.7574285896156 297.26133350101816Q277.3571928723977 297.26133350101816 283.07902312391326 293.76954991163177Q288.77151065619023 290.2777663222454 291.9405243339527 284.1744807206288Q295.10953801171513 278.0418523997738 295.10953801171513 270.2073463630833L295.10953801171513 270.2073463630833L295.10953801171513 190.57120634968257L268.0848935930187 190.57120634968257L268.0848935930187 169.44444849793297L340.7374664276466 169.44444849793297L340.7374664276466 190.57120634968257L317.93817357930016 190.57120634968257L317.93817357930016 272.3200221482582Q317.93817357930016 282.4726030047934 314.44638998991377 291.04067702244754Q310.9546064005273 299.57940832086297 304.5285508872869 305.91743567638787Q298.0731526548078 312.25546303191277 289.299679602484 315.8646174982533Q280.52620655016017 319.4444292453553 269.7574285896156 319.4444292453553Z " fill="#ffffff" transform="matrix(2.2499999313354513,0,0,2.2499999313354517,0,-249.99999847412175)"/><path d="MNaN 244.44444783528658 " fill="#ffffff" transform="matrix(2.2499999313354513,0,0,2.2499999313354517,0,-249.99999847412175)"/></g></svg>